<svg width="286" height="160" viewBox="0 0 286 160" fill="none" xmlns="http://www.w3.org/2000/svg">
<rect width="286" height="160" fill="#1E1E1E"/>
<g clip-path="url(#clip0_0_1)">
<rect width="1440" height="977" transform="translate(-577 -80)" fill="#121214"/>
<g clip-path="url(#clip1_0_1)">
<rect width="1493.33" height="630" transform="translate(-604 -80)" fill="#121214"/>
<g opacity="0.1">
<path fill-rule="evenodd" clip-rule="evenodd" d="M20.909 90.6387C20.909 90.6387 44.2929 105.928 50.8303 111.53C57.3677 117.132 78.8404 119.625 83.047 121.182C87.2535 122.739 97.3351 136.749 97.3351 136.749C97.3351 136.749 103.144 147.109 104.535 154.536C105.93 161.963 124.577 170.371 124.577 170.371L142.268 177.844C142.268 177.844 114.854 147.023 111.795 139.555C108.731 132.082 112.483 125.237 104.54 121.187C96.5919 117.142 77.273 110.605 75.2607 103.132C73.2485 95.6593 41.8054 69.5098 31.8451 64.8431C21.8848 60.1714 -7.65723 48.9673 -7.65723 48.9673C-7.65723 48.9673 11.5353 80.3751 20.9141 90.6488L20.909 90.6387Z" fill="#633BBC"/>
<path fill-rule="evenodd" clip-rule="evenodd" d="M-105.324 -95.7598C-105.324 -95.7598 -61.6908 -63.1994 -41.5731 -54.6194C-41.5731 -54.6194 -16.4095 -56.5002 -13.0068 -54.6194C-9.60418 -52.7386 5.34127 -43.4659 6.8884 -39.8559C8.43553 -36.251 9.46692 -28.5204 12.5561 -24.9105C15.6504 -21.3056 43.4734 -7.90724 53.2668 -6.36011C63.0603 -4.81298 86.7627 -0.176649 91.399 2.91761C96.0353 6.01186 94.4933 13.2217 97.0667 16.8317C99.6453 20.4366 115.101 26.6251 121.285 30.7457C127.468 34.8663 146.787 33.8399 152.586 36.4134C158.386 38.992 170.753 46.7175 170.753 46.7175L175.384 50.8381C175.384 50.8381 172.8 59.6001 175.384 62.1736C177.967 64.7522 188.787 66.8099 188.787 66.8099C188.787 66.8099 180.541 58.5637 180.541 53.4116C180.541 48.2596 175.384 44.1339 175.384 44.1339C175.384 44.1339 149.624 32.2827 146.014 29.1885C142.409 26.0942 109.939 -0.702464 107.366 -5.33879C104.787 -9.97512 99.1195 -22.8577 96.0303 -26.4677C92.9361 -30.0726 63.5659 -37.8032 56.351 -40.8975C49.1362 -43.9917 39.8534 -53.2644 35.4749 -60.995C31.1015 -68.7255 22.8552 -90.1224 20.2766 -92.9437C17.6981 -95.7649 12.0303 -95.7649 12.0303 -95.7649H-105.334L-105.324 -95.7598Z" fill="#633BBC"/>
<path fill-rule="evenodd" clip-rule="evenodd" d="M335.835 -29.5569C335.835 -29.5569 366.904 -1.72879 385.368 9.09099C403.833 19.9108 413.955 15.2745 413.955 15.2745C413.955 15.2745 430.26 20.0321 440.236 27.702C450.211 35.372 448.664 49.286 454.848 57.0166C461.031 64.7472 486.538 59.3373 486.538 59.3373L524.762 101.56L550.026 128.129C550.026 128.129 522.754 92.5702 518.174 84.8446C513.593 77.1141 481.902 32.2827 475.714 24.5522C469.53 16.8216 461.026 18.3687 454.843 7.54893C448.659 -3.27086 441.702 -15.6428 431.651 -24.9155C421.605 -34.1932 400.754 -48.1072 389.535 -54.2907C378.315 -60.4741 360.538 -66.6576 360.538 -66.6576L329.621 -73.6146L299.478 -90.092H161.116C161.116 -90.092 228.982 -43.4659 259.823 -31.8725C271.493 -27.489 335.83 -29.5518 335.83 -29.5518L335.835 -29.5569Z" fill="#633BBC"/>
<path fill-rule="evenodd" clip-rule="evenodd" d="M-621.501 56.0723C-621.501 56.0723 -567.397 95.2106 -556.537 104.625C-545.677 114.039 -516.504 113.326 -506.847 123.206C-497.19 133.085 -479.873 137.413 -467.749 150.836C-455.625 164.255 -415.47 174.144 -401.784 189.98C-388.092 205.815 -364.809 212.302 -353.075 219.451C-341.34 226.6 -304.972 243.917 -304.972 243.917C-304.972 243.917 -349.369 223.137 -356.609 202.357C-363.849 181.577 -359.738 155.68 -359.738 155.68C-359.738 155.68 -350.435 153.642 -359.738 136.437C-369.041 119.232 -361.27 108.265 -372.95 93.8354C-384.629 79.4056 -390.216 53.428 -382.227 41.3088C-374.239 29.1897 -355.628 -6.39427 -359.738 -27.5636C-363.849 -48.7381 -327.719 -64.3206 -327.719 -64.3206C-327.719 -64.3206 -273.084 -59.123 -266.516 -50.4672C-259.949 -41.8063 -211.866 -27.5636 -211.866 -27.5636C-211.866 -27.5636 -173.446 -25.4401 -168.208 -27.5636C-162.975 -29.6871 -146.508 -15.8338 -133.094 -3.7146C-119.681 8.40962 -117.067 1.02286 -98.4405 13.9965C-79.8092 26.9701 -76.2498 46.557 -65.5614 56.0774C-65.5614 56.0774 -77.5239 35.1709 -81.2856 13.9965C-81.2856 13.9965 -62.1487 16.1048 -48.2953 19.5682C-34.442 23.0315 -27.8035 22.263 -18.2325 29.5739C-8.66156 36.8849 1.8751 41.501 1.8751 41.501C1.8751 41.501 -14.3344 26.8791 -18.2325 18.7946C-22.1307 10.7152 -25.2097 2.63064 -30.2101 -0.448446C-35.2105 -3.52753 -91.8121 -17.8056 -106.313 -24.5199C-120.813 -31.2343 -133.094 -53.3592 -133.094 -53.3592C-133.094 -53.3592 -166.282 -99.9854 -187.218 -100.693C-208.155 -101.401 -244.856 -111.478 -258.219 -120.897C-271.582 -130.316 -315.681 -183.834 -315.681 -183.834H-614.14L-621.501 56.0723V56.0723Z" fill="#633BBC"/>
</g>
<g opacity="0.64">
<path d="M70.2002 37.8047C70.4813 38.1036 70.9558 38.1739 71.2545 37.9278C71.5533 37.6992 71.5708 37.2597 71.2721 36.9432C70.9909 36.6444 70.5165 36.5741 70.2177 36.8202C69.919 37.0488 69.9014 37.4883 70.2002 37.8047Z" fill="white"/>
<path d="M24.9896 30.1561C25.1829 30.3671 25.4992 30.4022 25.6925 30.244C25.8858 30.0858 25.9034 29.7869 25.6925 29.5935C25.4992 29.3825 25.1829 29.3474 24.9896 29.5056C24.7963 29.6639 24.7788 29.9627 24.9896 30.1561Z" fill="white"/>
<path d="M69.1009 87.6986C68.7143 87.7689 68.4859 88.1381 68.6089 88.5249C68.7319 88.9117 69.1536 89.1402 69.5402 89.0699C69.9268 88.9996 70.1553 88.6304 70.0323 88.2436C69.9093 87.8569 69.4875 87.6283 69.1009 87.6986Z" fill="white"/>
<path d="M131.594 35.1686C131.26 35.5906 131.365 36.2235 131.857 36.5927C132.349 36.9619 133.017 36.9267 133.351 36.5047C133.685 36.0828 133.58 35.4499 133.088 35.0807C132.596 34.7115 131.928 34.7467 131.594 35.1686Z" fill="white"/>
</g>
<g opacity="0.64">
<path d="M27.4935 19.3728C27.0541 19.3728 26.7027 19.7947 26.7027 20.3045C26.7027 20.8144 27.0892 21.2012 27.5285 21.1836C27.9679 21.1836 28.3193 20.7616 28.3193 20.2518C28.3193 19.742 27.9328 19.3552 27.4935 19.3728Z" fill="white"/>
</g>
<g opacity="0.64">
<path d="M50.6286 161.162C51.5424 161.531 52.4211 160.722 52.5792 159.369C52.7374 158.015 52.1223 156.626 51.2085 156.257C50.2947 155.888 49.4161 156.696 49.2579 158.05C49.0998 159.404 49.7148 160.793 50.6286 161.162Z" fill="white"/>
</g>
<g opacity="0.64">
<path d="M256.821 96.1508C257.12 95.9574 257.225 95.5882 257.067 95.3245C256.909 95.0608 256.54 94.9905 256.241 95.1839C255.942 95.3772 255.837 95.7464 255.995 96.0102C256.153 96.2739 256.522 96.3442 256.821 96.1508Z" fill="white"/>
<path d="M264.533 111.218C264.727 111.095 264.797 110.849 264.691 110.673C264.586 110.498 264.34 110.462 264.147 110.585C263.953 110.709 263.883 110.955 263.988 111.13C264.094 111.306 264.34 111.341 264.533 111.218Z" fill="white"/>
<path d="M260.001 145.676C260.001 146.063 260.352 146.327 260.756 146.257C261.16 146.186 261.459 145.835 261.459 145.448C261.459 145.061 261.108 144.797 260.703 144.868C260.299 144.938 260.001 145.29 260.001 145.676Z" fill="white"/>
<path d="M265.121 29.5022C265.42 29.8186 265.982 29.8186 266.352 29.467C266.721 29.1329 266.773 28.5879 266.474 28.2539C266.176 27.9375 265.613 27.9375 265.244 28.2891C264.875 28.6231 264.823 29.1681 265.121 29.5022Z" fill="white"/>
</g>
<g opacity="0.64">
</g>
<path d="M24.5256 43.6018C24.0687 42.5821 22.9616 42.1778 22.0478 42.6876C21.134 43.1975 20.7826 44.4457 21.2395 45.4653C21.6964 46.485 22.8034 46.8894 23.7172 46.3795C24.631 45.8697 24.9825 44.6215 24.5256 43.6018Z" fill="white"/>
<g opacity="0.4" filter="url(#filter0_f_0_1)">
<ellipse cx="128.374" cy="-66" rx="688.625" ry="347.083" fill="#633BBC"/>
</g>
<rect opacity="0.8" width="1493.33" height="756" transform="matrix(1 0 0 -1 -604.001 676)" fill="url(#paint0_linear_0_1)"/>
</g>
<g clip-path="url(#clip2_0_1)">
<mask id="mask0_0_1" style="mask-type:alpha" maskUnits="userSpaceOnUse" x="0" y="17" width="285" height="125">
<rect y="17.0518" width="284.938" height="124.058" fill="url(#paint1_linear_0_1)"/>
</mask>
<g mask="url(#mask0_0_1)">
<path d="M249.225 33.345L233.12 27.9651L166.793 28.1726L155.312 24.0481L145.597 28.0837L104.085 27.97L87.6362 20.4277H63.7192L60.0198 27.9675H39.1746L0 90.3523L43.6081 139.575H241.423L285.031 90.3523L249.223 33.3425L249.225 33.345ZM240.418 137.344H44.6139L2.78265 90.1249L40.4127 30.1991H61.416L65.1131 22.6592H87.1494L103.593 30.1991L146.04 30.3152L155.369 26.4378L166.406 30.4042L232.759 30.1966L247.757 35.2059L282.249 90.12L240.418 137.339V137.344Z" fill="url(#paint2_linear_0_1)"/>
</g>
<path d="M282.251 90.1247L240.418 137.341H44.6138L2.78259 90.1247L40.4126 30.1989H61.416L65.113 22.659H87.1493L103.596 30.1989L146.04 30.3175L155.369 26.4401L166.405 30.4065L232.759 30.1989L247.757 35.2106L282.251 90.1247Z" fill="url(#paint3_linear_0_1)"/>
<path d="M282.246 90.1247L247.759 35.2106L232.756 30.2013L166.407 30.4039L155.371 26.4375L146.037 30.315L103.593 30.2013L87.1488 22.6614H65.1149L61.4179 30.2013H40.4171L2.78455 90.1247H27.9495L46.9165 104.223H77.6344L82.2334 90.1247H102.159L106.739 70.1766H111.283L117.422 67.5027L116.134 81.0403L133.107 90.1247H282.246Z" fill="#4A357D"/>
<path d="M16.1102 82.7579H37.5485L41.2332 75.6901H31.7262L38.453 63.8972L49.4749 59.8838L52.9569 53.2114L42.4663 56.8615L48.0489 47.0728L44.7597 42.103H50.886H58.7495L61.1146 37.5683H44.4903L16.1102 82.7579Z" fill="white"/>
<path d="M69.7097 30.0257L57.2644 55.4205L72.354 64.3764L78.2751 67.4358L69.3143 72.3017L62.9903 88.7826H52.8408L63.6946 63.6918L55.5864 58.8432L40.2571 90.1171L49.3489 96.8563H72.2897L83.6551 62.0015L68.1231 53.4533L76.4834 34.128H83.9566L89.0424 36.2657L81.8486 39.6241L76.9382 52.4278L85.3084 56.9255L92.9594 33.4608L85.5308 30.0257H69.7097Z" fill="white"/>
<path d="M97.6869 37.5678L84.7078 82.7574H96.2906L100.872 62.8093H109.749L120.776 58.0077L122.82 41.4155L114.309 37.5678H97.6844H97.6869ZM112.571 47.2033L110.792 57.0513H102.197L105.63 42.1001H113.493L119.296 44.4602L112.571 47.2008V47.2033Z" fill="white"/>
<path d="M127.668 37.5678L123.932 76.8585L134.954 82.7574H156.392L153.543 41.4155L144.295 37.5678H127.671H127.668ZM144.451 51.4711L144.728 75.6871H135.221L136.483 42.1001H144.347L150.389 44.4602L144.453 51.4711H144.451Z" fill="white"/>
<path d="M159.881 41.4328L164.367 82.7574H175.95L172.636 62.8093H181.513L185.803 82.7574H197.388L192.191 63.6916L185.373 60.8051L190.641 58.0077L185.069 37.5678H168.444L159.881 41.4328ZM180.277 57.0513H171.682L170.056 47.2552L163.349 44.4626L169.198 42.1026H177.062L180.277 57.0537V57.0513Z" fill="white"/>
<path d="M189.366 42.1026H197.109L210.925 82.7574H222.511L208.306 47.013L200.193 42.0482H213.953L211.961 37.5678H188.044L189.366 42.1026Z" fill="white"/>
<path d="M252.7 56.9252L242.926 41.3637L231.558 37.5678H214.934L223.217 55.4202L246.85 64.3761L253.305 75.6896H243.796L237.541 63.6916L224.804 58.8429L233.162 76.8585L247.483 82.7574H268.921L255.885 62.0012L232.2 53.4531L228.882 47.0871L220.16 42.1026H234.145L240.034 52.4275L252.7 56.9252Z" fill="white"/>
<path d="M155.759 32.1531C154.545 33.3369 153.171 34.4341 151.661 35.43C153.312 36.4358 154.881 37.5825 156.347 38.8503C157.59 37.5825 158.959 36.4358 160.432 35.43C158.746 34.4341 157.179 33.3369 155.759 32.1531Z" fill="#E2D45C"/>
<path d="M29.1737 77.1725L36.1303 64.9743C33.5503 65.2684 30.9925 65.5699 28.457 65.8838L18.7919 81.2748H36.6493L38.7869 77.1725H29.1737Z" fill="url(#paint4_linear_0_1)"/>
<path d="M79.0514 61.1609C76.2885 61.3413 73.5429 61.534 70.8146 61.7391L73.0734 63.0786L80.4946 66.9115L81.8637 62.7079L79.0514 61.1609ZM70.5008 73.3418L64.0112 90.265H50.5848L61.8192 64.2969L59.1156 62.6807C57.8009 62.7944 56.4887 62.9105 55.1838 63.0316L42.1331 89.6596L49.8385 95.3731H71.2125L80.0943 68.1348L70.5008 73.3418Z" fill="url(#paint5_linear_0_1)"/>
<path d="M113.711 59.468L109.444 61.3264H99.6944L95.1127 81.2745H86.6782L92.6859 60.3552C99.6005 59.992 106.611 59.6954 113.711 59.468Z" fill="url(#paint6_linear_0_1)"/>
<path d="M154.803 81.2748H135.327L125.501 76.0184L127.11 59.1174C129.519 59.0679 131.936 59.0284 134.363 58.9963L133.681 77.1725H146.228L146.02 58.8999C147.13 58.8974 148.242 58.895 149.356 58.895C150.661 58.895 151.963 58.8974 153.261 58.9024L154.803 81.2748Z" fill="url(#paint7_linear_0_1)"/>
<path d="M195.448 81.2746H187.001L182.711 61.3265H170.886L174.2 81.2746H165.696L163.277 58.9813C170.513 59.0703 177.672 59.2309 184.745 59.4583L181.925 60.9558L190.95 64.7764L195.448 81.2746Z" fill="url(#paint8_linear_0_1)"/>
<path d="M212.147 60.6938C209.73 60.5529 207.301 60.4195 204.859 60.2959L211.989 81.2745H220.327L212.147 60.6938Z" fill="url(#paint9_linear_0_1)"/>
<path d="M255.52 64.2058C253.042 63.9463 250.546 63.6943 248.03 63.4521L255.859 77.1726H242.897L236.487 64.878L228.324 61.7692C228.141 61.7543 227.961 61.742 227.778 61.7296L234.265 75.7096L247.775 81.2749H266.241L255.52 64.2058Z" fill="url(#paint10_linear_0_1)"/>
<path fill-rule="evenodd" clip-rule="evenodd" d="M118.122 116.011V112.962L109.698 116.095H109.68V119.224H109.698L118.122 122.358V119.303L113.805 117.652L118.122 116.011Z" fill="#996DFF"/>
<path fill-rule="evenodd" clip-rule="evenodd" d="M166.92 122.2V119.15L171.235 117.509L166.92 115.868V112.819L175.333 115.95H175.352V119.081H175.333L166.92 122.197V122.2ZM163.307 108.511L158.36 124.392H161.298L166.246 108.511H163.307Z" fill="#996DFF"/>
<path fill-rule="evenodd" clip-rule="evenodd" d="M130.501 112.386C131.337 113.305 131.776 114.516 131.725 115.757V122.521H128.786V116.377C128.821 115.693 128.601 115.02 128.173 114.487C127.766 114.012 127.163 113.75 126.537 113.777C124.699 113.777 123.777 115.053 123.777 117.605V122.523H120.839V111.417H123.777V112.421C124.709 111.514 125.974 111.032 127.274 111.086C128.485 111.034 129.661 111.509 130.499 112.386H130.501Z" fill="white"/>
<path fill-rule="evenodd" clip-rule="evenodd" d="M135.464 106.799V122.679H138.402V106.799H135.464Z" fill="white"/>
<path fill-rule="evenodd" clip-rule="evenodd" d="M155.003 122.098H152.552L150.15 115.557L147.726 122.098H145.279L141.162 110.972H144.3L146.613 117.625L148.998 110.972H151.289L153.674 117.647L155.987 110.972H159.126L155.003 122.098Z" fill="white"/>
<path d="M11.9786 25.9287C15.305 17.8946 22.0219 11.5632 31.9366 7.11248C41.4362 2.84707 53.4738 0.474649 67.7108 0.0644182C96.8965 -0.778285 132.129 6.6899 166.913 21.0999C169.413 22.1353 171.892 23.198 174.344 24.2878L170.876 24.2977C169.389 23.6527 167.889 23.0176 166.376 22.3924C95.1122 -7.12451 26.4282 -5.29824 13.2711 26.465C9.46042 35.6631 10.7183 46.376 16.16 57.6747C29.5024 85.3974 68.0221 116.637 118.654 137.608C123.552 139.637 128.455 141.525 133.35 143.272C163.052 153.879 192.389 159.254 217.279 158.535C231.334 158.129 243.188 155.799 252.52 151.61C262.101 147.31 268.573 141.228 271.759 133.535C274.633 126.593 274.623 118.789 272.105 110.52L273.18 109.307C276.13 118.421 276.091 126.742 273.054 134.072C269.725 142.106 263.01 148.437 253.093 152.888C243.594 157.153 231.559 159.526 217.322 159.936C215.834 159.978 214.331 160 212.814 160C187.723 160 158.579 154.151 129.258 143.272C125.543 141.896 121.829 140.438 118.117 138.9C83.3341 124.493 53.1401 104.864 33.0981 83.628C25.2172 75.2776 19.2467 67.0383 15.2902 59.0586C14.3362 57.1384 13.501 55.2355 12.7843 53.35C8.92168 43.1906 8.64985 33.9653 11.9786 25.9287Z" fill="url(#paint11_linear_0_1)"/>
<path d="M11.9786 25.9287C15.305 17.8946 22.0219 11.5632 31.9366 7.11248C41.4362 2.84707 53.4738 0.474649 67.7108 0.0644182C96.8965 -0.778285 132.129 6.6899 166.913 21.0999C169.413 22.1353 171.892 23.198 174.344 24.2878L170.876 24.2977C169.389 23.6527 167.889 23.0176 166.376 22.3924C95.1122 -7.12451 26.4282 -5.29824 13.2711 26.465C9.46042 35.6631 10.7183 46.376 16.16 57.6747C29.5024 85.3974 68.0221 116.637 118.654 137.608C123.552 139.637 128.455 141.525 133.35 143.272C163.052 153.879 192.389 159.254 217.279 158.535C231.334 158.129 243.188 155.799 252.52 151.61C262.101 147.31 268.573 141.228 271.759 133.535C274.633 126.593 274.623 118.789 272.105 110.52L273.18 109.307C276.13 118.421 276.091 126.742 273.054 134.072C269.725 142.106 263.01 148.437 253.093 152.888C243.594 157.153 231.559 159.526 217.322 159.936C215.834 159.978 214.331 160 212.814 160C187.723 160 158.579 154.151 129.258 143.272C125.543 141.896 121.829 140.438 118.117 138.9C83.3341 124.493 53.1401 104.864 33.0981 83.628C25.2172 75.2776 19.2467 67.0383 15.2902 59.0586C14.3362 57.1384 13.501 55.2355 12.7843 53.35C8.92168 43.1906 8.64985 33.9653 11.9786 25.9287Z" fill="url(#paint12_radial_0_1)"/>
<path d="M11.9786 25.9287C15.305 17.8946 22.0219 11.5632 31.9366 7.11248C41.4362 2.84707 53.4738 0.474649 67.7108 0.0644182C96.8965 -0.778285 132.129 6.6899 166.913 21.0999C169.413 22.1353 171.892 23.198 174.344 24.2878L170.876 24.2977C169.389 23.6527 167.889 23.0176 166.376 22.3924C95.1122 -7.12451 26.4282 -5.29824 13.2711 26.465C9.46042 35.6631 10.7183 46.376 16.16 57.6747C29.5024 85.3974 68.0221 116.637 118.654 137.608C123.552 139.637 128.455 141.525 133.35 143.272C163.052 153.879 192.389 159.254 217.279 158.535C231.334 158.129 243.188 155.799 252.52 151.61C262.101 147.31 268.573 141.228 271.759 133.535C274.633 126.593 274.623 118.789 272.105 110.52L273.18 109.307C276.13 118.421 276.091 126.742 273.054 134.072C269.725 142.106 263.01 148.437 253.093 152.888C243.594 157.153 231.559 159.526 217.322 159.936C215.834 159.978 214.331 160 212.814 160C187.723 160 158.579 154.151 129.258 143.272C125.543 141.896 121.829 140.438 118.117 138.9C83.3341 124.493 53.1401 104.864 33.0981 83.628C25.2172 75.2776 19.2467 67.0383 15.2902 59.0586C14.3362 57.1384 13.501 55.2355 12.7843 53.35C8.92168 43.1906 8.64985 33.9653 11.9786 25.9287Z" fill="url(#paint13_radial_0_1)"/>
<path d="M11.9786 25.9287C15.305 17.8946 22.0219 11.5632 31.9366 7.11248C41.4362 2.84707 53.4738 0.474649 67.7108 0.0644182C96.8965 -0.778285 132.129 6.6899 166.913 21.0999C169.413 22.1353 171.892 23.198 174.344 24.2878L170.876 24.2977C169.389 23.6527 167.889 23.0176 166.376 22.3924C95.1122 -7.12451 26.4282 -5.29824 13.2711 26.465C9.46042 35.6631 10.7183 46.376 16.16 57.6747C29.5024 85.3974 68.0221 116.637 118.654 137.608C123.552 139.637 128.455 141.525 133.35 143.272C163.052 153.879 192.389 159.254 217.279 158.535C231.334 158.129 243.188 155.799 252.52 151.61C262.101 147.31 268.573 141.228 271.759 133.535C274.633 126.593 274.623 118.789 272.105 110.52L273.18 109.307C276.13 118.421 276.091 126.742 273.054 134.072C269.725 142.106 263.01 148.437 253.093 152.888C243.594 157.153 231.559 159.526 217.322 159.936C215.834 159.978 214.331 160 212.814 160C187.723 160 158.579 154.151 129.258 143.272C125.543 141.896 121.829 140.438 118.117 138.9C83.3341 124.493 53.1401 104.864 33.0981 83.628C25.2172 75.2776 19.2467 67.0383 15.2902 59.0586C14.3362 57.1384 13.501 55.2355 12.7843 53.35C8.92168 43.1906 8.64985 33.9653 11.9786 25.9287Z" fill="url(#paint14_radial_0_1)"/>
<path d="M273.053 25.9287C269.727 17.8946 263.01 11.5632 253.095 7.11248C243.596 2.84707 231.558 0.474649 217.321 0.0644182C188.136 -0.778285 152.903 6.6899 118.12 21.0999C115.619 22.1353 113.14 23.198 110.688 24.2878L114.156 24.2977C115.643 23.6527 117.143 23.0176 118.656 22.3924C189.92 -7.12451 258.604 -5.29824 271.761 26.465C275.572 35.6631 274.314 46.376 268.872 57.6747C255.53 85.3974 217.01 116.637 166.379 137.608C161.48 139.637 156.577 141.525 151.682 143.272C121.98 153.879 92.6432 159.254 67.7526 158.535C53.6985 158.129 41.8438 155.799 32.5123 151.61C22.9311 147.31 16.4589 141.228 13.2734 133.535C10.3993 126.593 10.4092 118.789 12.9274 110.52L11.8524 109.307C8.90173 118.421 8.94127 126.742 11.9785 134.072C15.3073 142.106 22.0217 148.437 31.9389 152.888C41.4385 157.153 53.4736 159.526 67.7106 159.936C69.1983 159.978 70.7008 160 72.2182 160C97.309 160 126.453 154.151 155.774 143.272C159.489 141.896 163.203 140.438 166.915 138.9C201.698 124.493 231.892 104.864 251.934 83.628C259.815 75.2776 265.785 67.0383 269.742 59.0586C270.696 57.1384 271.531 55.2355 272.248 53.35C276.11 43.1906 276.382 33.9653 273.053 25.9287Z" fill="url(#paint15_linear_0_1)"/>
<path d="M273.053 25.9287C269.727 17.8946 263.01 11.5632 253.095 7.11248C243.596 2.84707 231.558 0.474649 217.321 0.0644182C188.136 -0.778285 152.903 6.6899 118.12 21.0999C115.619 22.1353 113.14 23.198 110.688 24.2878L114.156 24.2977C115.643 23.6527 117.143 23.0176 118.656 22.3924C189.92 -7.12451 258.604 -5.29824 271.761 26.465C275.572 35.6631 274.314 46.376 268.872 57.6747C255.53 85.3974 217.01 116.637 166.379 137.608C161.48 139.637 156.577 141.525 151.682 143.272C121.98 153.879 92.6432 159.254 67.7526 158.535C53.6985 158.129 41.8438 155.799 32.5123 151.61C22.9311 147.31 16.4589 141.228 13.2734 133.535C10.3993 126.593 10.4092 118.789 12.9274 110.52L11.8524 109.307C8.90173 118.421 8.94127 126.742 11.9785 134.072C15.3073 142.106 22.0217 148.437 31.9389 152.888C41.4385 157.153 53.4736 159.526 67.7106 159.936C69.1983 159.978 70.7008 160 72.2182 160C97.309 160 126.453 154.151 155.774 143.272C159.489 141.896 163.203 140.438 166.915 138.9C201.698 124.493 231.892 104.864 251.934 83.628C259.815 75.2776 265.785 67.0383 269.742 59.0586C270.696 57.1384 271.531 55.2355 272.248 53.35C276.11 43.1906 276.382 33.9653 273.053 25.9287Z" fill="url(#paint16_radial_0_1)"/>
<path d="M273.053 25.9287C269.727 17.8946 263.01 11.5632 253.095 7.11248C243.596 2.84707 231.558 0.474649 217.321 0.0644182C188.136 -0.778285 152.903 6.6899 118.12 21.0999C115.619 22.1353 113.14 23.198 110.688 24.2878L114.156 24.2977C115.643 23.6527 117.143 23.0176 118.656 22.3924C189.92 -7.12451 258.604 -5.29824 271.761 26.465C275.572 35.6631 274.314 46.376 268.872 57.6747C255.53 85.3974 217.01 116.637 166.379 137.608C161.48 139.637 156.577 141.525 151.682 143.272C121.98 153.879 92.6432 159.254 67.7526 158.535C53.6985 158.129 41.8438 155.799 32.5123 151.61C22.9311 147.31 16.4589 141.228 13.2734 133.535C10.3993 126.593 10.4092 118.789 12.9274 110.52L11.8524 109.307C8.90173 118.421 8.94127 126.742 11.9785 134.072C15.3073 142.106 22.0217 148.437 31.9389 152.888C41.4385 157.153 53.4736 159.526 67.7106 159.936C69.1983 159.978 70.7008 160 72.2182 160C97.309 160 126.453 154.151 155.774 143.272C159.489 141.896 163.203 140.438 166.915 138.9C201.698 124.493 231.892 104.864 251.934 83.628C259.815 75.2776 265.785 67.0383 269.742 59.0586C270.696 57.1384 271.531 55.2355 272.248 53.35C276.11 43.1906 276.382 33.9653 273.053 25.9287Z" fill="url(#paint17_radial_0_1)"/>
</g>
</g>
<defs>
<filter id="filter0_f_0_1" x="-910.251" y="-763.083" width="2077.25" height="1394.17" filterUnits="userSpaceOnUse" color-interpolation-filters="sRGB">
<feFlood flood-opacity="0" result="BackgroundImageFix"/>
<feBlend mode="normal" in="SourceGraphic" in2="BackgroundImageFix" result="shape"/>
<feGaussianBlur stdDeviation="175" result="effect1_foregroundBlur_0_1"/>
</filter>
<linearGradient id="paint0_linear_0_1" x1="746.667" y1="0" x2="746.667" y2="756" gradientUnits="userSpaceOnUse">
<stop stop-color="#121214"/>
<stop offset="1" stop-color="#121214" stop-opacity="0"/>
</linearGradient>
<linearGradient id="paint1_linear_0_1" x1="142.469" y1="74.7559" x2="142.469" y2="135.549" gradientUnits="userSpaceOnUse">
<stop stop-color="#D9D9D9"/>
<stop offset="1" stop-color="#D9D9D9" stop-opacity="0"/>
</linearGradient>
<linearGradient id="paint2_linear_0_1" x1="0" y1="80.0001" x2="285.034" y2="80.0001" gradientUnits="userSpaceOnUse">
<stop stop-color="#996DFF"/>
<stop offset="0.5" stop-color="#35E8B3"/>
<stop offset="1" stop-color="#E2D45C"/>
</linearGradient>
<linearGradient id="paint3_linear_0_1" x1="142.516" y1="91.9115" x2="142.516" y2="136.167" gradientUnits="userSpaceOnUse">
<stop stop-color="#28203E"/>
<stop offset="1" stop-color="#121214" stop-opacity="0"/>
</linearGradient>
<linearGradient id="paint4_linear_0_1" x1="28.7906" y1="61.0154" x2="28.7906" y2="78.4551" gradientUnits="userSpaceOnUse">
<stop stop-color="#A9A9AD"/>
<stop offset="1" stop-color="#A9A9AD" stop-opacity="0"/>
</linearGradient>
<linearGradient id="paint5_linear_0_1" x1="61.9996" y1="61.0151" x2="61.9996" y2="78.4548" gradientUnits="userSpaceOnUse">
<stop stop-color="#A9A9AD"/>
<stop offset="1" stop-color="#A9A9AD" stop-opacity="0"/>
</linearGradient>
<linearGradient id="paint6_linear_0_1" x1="100.196" y1="61.0151" x2="100.196" y2="78.4548" gradientUnits="userSpaceOnUse">
<stop stop-color="#A9A9AD"/>
<stop offset="1" stop-color="#A9A9AD" stop-opacity="0"/>
</linearGradient>
<linearGradient id="paint7_linear_0_1" x1="140.153" y1="61.0153" x2="140.153" y2="78.4551" gradientUnits="userSpaceOnUse">
<stop stop-color="#A9A9AD"/>
<stop offset="1" stop-color="#A9A9AD" stop-opacity="0"/>
</linearGradient>
<linearGradient id="paint8_linear_0_1" x1="179.363" y1="61.0151" x2="179.363" y2="78.4549" gradientUnits="userSpaceOnUse">
<stop stop-color="#A9A9AD"/>
<stop offset="1" stop-color="#A9A9AD" stop-opacity="0"/>
</linearGradient>
<linearGradient id="paint9_linear_0_1" x1="212.594" y1="61.015" x2="212.594" y2="78.4548" gradientUnits="userSpaceOnUse">
<stop stop-color="#A9A9AD"/>
<stop offset="1" stop-color="#A9A9AD" stop-opacity="0"/>
</linearGradient>
<linearGradient id="paint10_linear_0_1" x1="247.009" y1="61.0154" x2="247.009" y2="78.4552" gradientUnits="userSpaceOnUse">
<stop stop-color="#A9A9AD"/>
<stop offset="1" stop-color="#A9A9AD" stop-opacity="0"/>
</linearGradient>
<linearGradient id="paint11_linear_0_1" x1="258.619" y1="114.544" x2="66.1068" y2="115.532" gradientUnits="userSpaceOnUse">
<stop stop-color="#996DFF"/>
<stop offset="0.5" stop-color="#35E8B3"/>
<stop offset="1" stop-color="#E2D45C"/>
</linearGradient>
<radialGradient id="paint12_radial_0_1" cx="0" cy="0" r="1" gradientUnits="userSpaceOnUse" gradientTransform="translate(140.758 146.212) rotate(15.7611) scale(129.411 214.897)">
<stop stop-color="#171226"/>
<stop offset="1" stop-color="#171226" stop-opacity="0"/>
</radialGradient>
<radialGradient id="paint13_radial_0_1" cx="0" cy="0" r="1" gradientUnits="userSpaceOnUse" gradientTransform="translate(173.94 25.0002) rotate(-157.036) scale(29.1264 48.3668)">
<stop stop-color="#261945"/>
<stop offset="1" stop-color="#261945" stop-opacity="0"/>
</radialGradient>
<radialGradient id="paint14_radial_0_1" cx="0" cy="0" r="1" gradientUnits="userSpaceOnUse" gradientTransform="translate(273.485 107.273) rotate(76.7293) scale(33.0025 54.8033)">
<stop stop-color="#191326"/>
<stop offset="1" stop-color="#191326" stop-opacity="0"/>
</radialGradient>
<linearGradient id="paint15_linear_0_1" x1="149.849" y1="17.7274" x2="192.879" y2="126.818" gradientUnits="userSpaceOnUse">
<stop stop-color="#996DFF"/>
<stop offset="0.5" stop-color="#35E8B3"/>
<stop offset="1" stop-color="#E2D45C"/>
</linearGradient>
<radialGradient id="paint16_radial_0_1" cx="0" cy="0" r="1" gradientUnits="userSpaceOnUse" gradientTransform="translate(108.03 27.4244) rotate(-19.3523) scale(65.8413 109.335)">
<stop stop-color="#171225"/>
<stop offset="1" stop-color="#171225" stop-opacity="0"/>
</radialGradient>
<radialGradient id="paint17_radial_0_1" cx="0" cy="0" r="1" gradientUnits="userSpaceOnUse" gradientTransform="translate(11.9698 108.788) rotate(67.4706) scale(44.2891 73.5456)">
<stop stop-color="#191327"/>
<stop offset="1" stop-color="#191327" stop-opacity="0"/>
</radialGradient>
<clipPath id="clip0_0_1">
<rect width="1440" height="977" fill="white" transform="translate(-577 -80)"/>
</clipPath>
<clipPath id="clip1_0_1">
<rect width="1493.33" height="630" fill="white" transform="translate(-604 -80)"/>
</clipPath>
<clipPath id="clip2_0_1">
<rect width="285.034" height="160" fill="white"/>
</clipPath>
</defs>
</svg>
